<?xml version="1.0" encoding="UTF-8" standalone="no"?>
<svg
   viewBox="0 0 36 36"
   version="1.1"
   id="svg31"
   sodipodi:docname="1f642.svg"
   inkscape:version="1.1 (c68e22c387, 2021-05-23)"
   xmlns:inkscape="http://www.inkscape.org/namespaces/inkscape"
   xmlns:sodipodi="http://sodipodi.sourceforge.net/DTD/sodipodi-0.dtd"
   xmlns="http://www.w3.org/2000/svg"
   xmlns:svg="http://www.w3.org/2000/svg">
  <defs
     id="defs35">
    <filter
       style="color-interpolation-filters:sRGB;"
       inkscape:label="Greyscale"
       id="filter199"
       x="0"
       y="0"
       width="1"
       height="1">
      <feColorMatrix
         values="0.21 0.72 0.072 0 0 0.21 0.72 0.072 0 0 0.21 0.72 0.072 0 0 0 0 0 1 0 "
         id="feColorMatrix197" />
    </filter>
    <filter
       style="color-interpolation-filters:sRGB;"
       inkscape:label="Greyscale"
       id="filter203"
       x="0"
       y="0"
       width="1"
       height="1">
      <feColorMatrix
         values="0.21 0.72 0.072 0 0 0.21 0.72 0.072 0 0 0.21 0.72 0.072 0 0 0 0 0 1 0 "
         id="feColorMatrix201" />
    </filter>
    <filter
       style="color-interpolation-filters:sRGB;"
       inkscape:label="Greyscale"
       id="filter207"
       x="0"
       y="0"
       width="1"
       height="1">
      <feColorMatrix
         values="0.21 0.72 0.072 0 0 0.21 0.72 0.072 0 0 0.21 0.72 0.072 0 0 0 0 0 1 0 "
         id="feColorMatrix205" />
    </filter>
  </defs>
  <sodipodi:namedview
     id="namedview33"
     pagecolor="#ffffff"
     bordercolor="#666666"
     borderopacity="1.0"
     inkscape:pageshadow="2"
     inkscape:pageopacity="0.0"
     inkscape:pagecheckerboard="0"
     showgrid="false"
     inkscape:zoom="23.583333"
     inkscape:cx="18"
     inkscape:cy="18"
     inkscape:window-width="1804"
     inkscape:window-height="1057"
     inkscape:window-x="-8"
     inkscape:window-y="-8"
     inkscape:window-maximized="1"
     inkscape:current-layer="svg31" />
  <path
     fill="#664500"
     d="M10.515 23.621C10.56 23.8 11.683 28 18 28c6.318 0 7.44-4.2 7.485-4.379.055-.217-.043-.442-.237-.554-.195-.111-.439-.078-.6.077C24.629 23.163 22.694 25 18 25s-6.63-1.837-6.648-1.855C11.256 23.05 11.128 23 11 23c-.084 0-.169.021-.246.064-.196.112-.294.339-.239.557z"
     id="path25"
     style="filter:url(#filter207)" />
  <ellipse
     fill="#664500"
     cx="12"
     cy="13.5"
     rx="2.5"
     ry="3.5"
     id="ellipse27"
     style="filter:url(#filter203)" />
  <ellipse
     fill="#664500"
     cx="24"
     cy="13.5"
     rx="2.5"
     ry="3.5"
     id="ellipse29"
     style="filter:url(#filter199)" />
</svg>
